<?xml version="1.0" encoding="utf-8"?>
<!-- Generator: Adobe Illustrator 23.1.0, SVG Export Plug-In . SVG Version: 6.00 Build 0)  -->
<svg version="1.1" id="Layer_1" xmlns="http://www.w3.org/2000/svg" xmlns:xlink="http://www.w3.org/1999/xlink" x="0px" y="0px"
	 viewBox="0 0 1080 1080" style="enable-background:new 0 0 1080 1080;" xml:space="preserve">
<style type="text/css">
	.st0{fill:#FFFFFF;}
</style>
<g>
	<g>
		<g>
			<path class="st0" d="M167.9,791.77c-6.46-3.38-11.48-8.21-15.05-14.48c-3.57-6.27-5.36-13.59-5.36-21.95
				c0-8.36,1.79-15.68,5.36-21.95c3.57-6.27,8.59-11.12,15.05-14.54c6.46-3.42,13.87-5.13,22.23-5.13c11.02,0,20.22,2.62,27.59,7.87
				v13.8c-6.61-5.62-15.39-8.44-26.34-8.44c-5.85,0-10.98,1.16-15.39,3.48c-4.41,2.32-7.83,5.61-10.26,9.86
				c-2.43,4.26-3.65,9.28-3.65,15.05c0,5.78,1.23,10.79,3.71,15.05c2.47,4.26,5.91,7.54,10.32,9.86c4.41,2.32,9.5,3.48,15.28,3.48
				c5.62,0,10.64-0.7,15.05-2.11c4.41-1.41,8.47-3.67,12.2-6.78v13.8c-6.99,5.47-16.5,8.21-28.5,8.21
				C181.78,796.84,174.36,795.15,167.9,791.77z"/>
			<path class="st0" d="M230.04,710.87h14.37v36.49c5.17-5.78,11.86-8.67,20.07-8.67c7.37,0,12.88,2,16.53,5.99
				c3.65,3.99,5.47,9.29,5.47,15.91v34.55h-14.37v-33.18c0-7.98-3.73-11.97-11.17-11.97c-3.27,0-6.35,0.78-9.24,2.34
				c-2.89,1.56-5.32,3.9-7.3,7.01v35.8h-14.37V710.87z"/>
			<path class="st0" d="M301.88,791.65c-4.18-3.46-6.27-8.11-6.27-13.97c0-6.08,1.98-10.83,5.93-14.25
				c3.95-3.42,9.5-5.13,16.65-5.13c6.92,0,12.88,1.41,17.9,4.22v-1.48c0-3.88-1.2-6.69-3.59-8.44c-2.39-1.75-6.25-2.62-11.57-2.62
				c-3.35,0-6.65,0.32-9.92,0.97c-3.27,0.65-6.16,1.54-8.67,2.68v-11.29c2.28-1.06,5.34-1.94,9.18-2.62
				c3.84-0.68,7.54-1.03,11.12-1.03c9.5,0,16.53,2.03,21.09,6.1c4.56,4.07,6.84,9.71,6.84,16.93v33.41h-13.57v-5.36
				c-2.36,2.28-5.04,4.03-8.04,5.25c-3,1.21-6.67,1.82-11,1.82C311.41,796.84,306.05,795.11,301.88,791.65z M330.15,784.47
				c2.58-1.25,4.56-2.98,5.93-5.19v-6.04c-4.18-2.96-8.97-4.45-14.37-4.45c-7.68,0-11.52,2.96-11.52,8.89c0,2.89,0.97,5.06,2.91,6.5
				c1.94,1.45,4.73,2.17,8.38,2.17C324.68,786.35,327.57,785.73,330.15,784.47z"/>
			<path class="st0" d="M363.67,740.4h13.45v7.18c2.43-2.89,5.28-5.09,8.55-6.61c3.27-1.52,6.57-2.28,9.92-2.28
				c4.26,0,7.68,0.7,10.26,2.11c2.58,1.41,4.52,3.52,5.81,6.33c2.43-2.74,5.38-4.83,8.84-6.27c3.46-1.44,6.9-2.17,10.32-2.17
				c6.84,0,11.74,1.71,14.71,5.13s4.45,8.44,4.45,15.05v36.26h-13.8v-34.32c0-3.88-0.78-6.65-2.34-8.32
				c-1.56-1.67-4.05-2.51-7.47-2.51c-2.43,0-4.66,0.48-6.67,1.42c-2.02,0.95-3.86,2.57-5.53,4.85c0.15,2.43,0.23,4.41,0.23,5.93
				v32.95H400.5v-34.55c0-3.95-0.65-6.71-1.94-8.27c-1.29-1.56-3.65-2.34-7.07-2.34c-5.17,0-9.81,2.93-13.91,8.78v36.37h-13.91
				V740.4z"/>
			<path class="st0" d="M463.1,740.4h13.91v6.61c2.96-2.81,6.19-4.9,9.69-6.27c3.5-1.37,7.49-2.05,11.97-2.05
				c5.55,0,10.51,1.2,14.88,3.59c4.37,2.39,7.79,5.78,10.26,10.15c2.47,4.37,3.71,9.45,3.71,15.22c0,5.7-1.24,10.76-3.71,15.16
				c-2.47,4.41-5.89,7.85-10.26,10.32c-4.37,2.47-9.33,3.71-14.88,3.71c-4.18,0-8.11-0.59-11.8-1.77c-3.69-1.18-6.82-2.95-9.41-5.3
				v30.33H463.1V740.4z M507.91,780.54c3.34-3.34,5.02-7.64,5.02-12.88s-1.67-9.5-5.02-12.77c-3.35-3.27-7.6-4.9-12.77-4.9
				c-4.1,0-7.75,1.1-10.95,3.31c-3.19,2.21-5.44,5.17-6.73,8.89v11.06c1.21,3.73,3.44,6.71,6.67,8.95c3.23,2.24,6.9,3.36,11,3.36
				C500.3,785.55,504.56,783.88,507.91,780.54z"/>
			<path class="st0" d="M541.26,728.54c-1.56-1.52-2.34-3.42-2.34-5.7s0.78-4.2,2.34-5.76c1.56-1.56,3.48-2.34,5.76-2.34
				s4.22,0.78,5.82,2.34c1.6,1.56,2.39,3.48,2.39,5.76s-0.8,4.18-2.39,5.7c-1.6,1.52-3.54,2.28-5.82,2.28
				S542.81,730.07,541.26,728.54z M539.72,740.4h14.59v54.73h-14.59V740.4z"/>
			<path class="st0" d="M581.85,793.36c-4.83-2.32-8.57-5.66-11.23-10.03c-2.66-4.37-3.99-9.56-3.99-15.56
				c0-5.85,1.31-10.96,3.93-15.34c2.62-4.37,6.37-7.75,11.23-10.15c4.86-2.39,10.49-3.59,16.88-3.59c6.38,0,11.99,1.2,16.82,3.59
				c4.83,2.39,8.57,5.78,11.23,10.15c2.66,4.37,3.99,9.48,3.99,15.34c0,6-1.33,11.19-3.99,15.56c-2.66,4.37-6.4,7.72-11.23,10.03
				c-4.83,2.32-10.43,3.48-16.82,3.48C592.28,796.84,586.67,795.68,581.85,793.36z M611.21,780.59c3.12-3.31,4.67-7.58,4.67-12.83
				c0-5.55-1.54-9.9-4.62-13.06c-3.08-3.15-7.28-4.73-12.6-4.73c-5.32,0-9.52,1.58-12.6,4.73c-3.08,3.16-4.62,7.51-4.62,13.06
				c0,5.24,1.56,9.52,4.67,12.83c3.12,3.31,7.3,4.96,12.54,4.96C603.91,785.55,608.09,783.9,611.21,780.59z"/>
			<path class="st0" d="M642.1,740.4h13.91v7.41c2.58-3.12,5.66-5.42,9.24-6.9c3.57-1.48,7.33-2.22,11.29-2.22
				c7.37,0,12.88,2,16.53,5.99c3.65,3.99,5.47,9.29,5.47,15.91v34.55h-14.37v-33.18c0-7.98-3.72-11.97-11.17-11.97
				c-3.27,0-6.35,0.78-9.24,2.34c-2.89,1.56-5.32,3.9-7.3,7.01v35.8H642.1V740.4z"/>
			<path class="st0" d="M720.32,795.47c-4.49-0.91-7.98-2.17-10.49-3.76v-12.2c2.96,1.83,6.5,3.29,10.6,4.39
				c4.1,1.1,7.98,1.65,11.63,1.65c3.65,0,6.31-0.32,7.98-0.97c1.67-0.64,2.51-1.84,2.51-3.59c0-1.37-0.44-2.49-1.31-3.36
				c-0.87-0.87-2.28-1.67-4.22-2.39c-1.94-0.72-4.92-1.61-8.95-2.68c-4.56-1.29-8.15-2.62-10.77-3.99c-2.62-1.37-4.6-3.1-5.93-5.19
				c-1.33-2.09-2-4.81-2-8.15c0-5.47,2.17-9.6,6.5-12.37c4.33-2.77,10.19-4.16,17.56-4.16c3.8,0,7.58,0.36,11.34,1.08
				c3.76,0.72,6.71,1.73,8.84,3.02v11.74c-2.28-1.37-5.06-2.47-8.32-3.31c-3.27-0.84-6.61-1.25-10.03-1.25
				c-3.73,0-6.54,0.36-8.44,1.08c-1.9,0.72-2.85,2.11-2.85,4.16c0,1.37,0.51,2.45,1.54,3.25s2.38,1.48,4.05,2.05
				c1.67,0.57,4.71,1.42,9.12,2.57c4.71,1.29,8.4,2.7,11.06,4.22c2.66,1.52,4.56,3.35,5.7,5.47c1.14,2.13,1.71,4.79,1.71,7.98
				c0,4.87-2.07,8.76-6.21,11.69c-4.14,2.93-10.13,4.39-17.96,4.39C729.02,796.84,724.8,796.39,720.32,795.47z"/>
			<path class="st0" d="M768.55,710.87h14.37v36.49c5.17-5.78,11.86-8.67,20.07-8.67c7.37,0,12.88,2,16.53,5.99
				c3.65,3.99,5.47,9.29,5.47,15.91v34.55h-14.37v-33.18c0-7.98-3.72-11.97-11.17-11.97c-3.27,0-6.35,0.78-9.24,2.34
				c-2.89,1.56-5.32,3.9-7.3,7.01v35.8h-14.37V710.87z"/>
			<path class="st0" d="M840.44,728.54c-1.56-1.52-2.34-3.42-2.34-5.7s0.78-4.2,2.34-5.76c1.56-1.56,3.48-2.34,5.76-2.34
				s4.22,0.78,5.82,2.34c1.6,1.56,2.39,3.48,2.39,5.76s-0.8,4.18-2.39,5.7c-1.6,1.52-3.54,2.28-5.82,2.28
				S841.99,730.07,840.44,728.54z M838.9,740.4h14.59v54.73H838.9V740.4z"/>
			<path class="st0" d="M868.08,740.4H882v6.61c2.96-2.81,6.19-4.9,9.69-6.27c3.5-1.37,7.49-2.05,11.97-2.05
				c5.55,0,10.51,1.2,14.88,3.59c4.37,2.39,7.79,5.78,10.26,10.15c2.47,4.37,3.71,9.45,3.71,15.22c0,5.7-1.24,10.76-3.71,15.16
				c-2.47,4.41-5.89,7.85-10.26,10.32c-4.37,2.47-9.33,3.71-14.88,3.71c-4.18,0-8.12-0.59-11.8-1.77c-3.69-1.18-6.82-2.95-9.41-5.3
				v30.33h-14.37V740.4z M912.89,780.54c3.34-3.34,5.02-7.64,5.02-12.88s-1.67-9.5-5.02-12.77c-3.35-3.27-7.6-4.9-12.77-4.9
				c-4.11,0-7.75,1.1-10.95,3.31c-3.19,2.21-5.44,5.17-6.73,8.89v11.06c1.21,3.73,3.44,6.71,6.67,8.95c3.23,2.24,6.9,3.36,11,3.36
				C905.29,785.55,909.55,783.88,912.89,780.54z"/>
		</g>
		<g>
			<path class="st0" d="M686.16,440.75c-5.82-5.58-8.74-12.61-8.74-21.11c0-8.24,2.91-15.22,8.74-20.92
				c5.82-5.7,12.97-8.55,21.47-8.55c8.49,0,15.65,2.85,21.47,8.55c5.82,5.7,8.73,12.68,8.73,20.92c0,8.49-2.91,15.53-8.73,21.11
				c-5.82,5.58-12.98,8.37-21.47,8.37C699.14,449.12,691.98,446.34,686.16,440.75z"/>
			<g>
				<path class="st0" d="M220.02,635.25c-21.6-10.31-38.27-25.11-50.03-44.4c-11.77-19.29-17.65-41.9-17.65-67.87
					c0-25.95,5.94-48.94,17.83-68.96c11.88-20.01,28.2-35.54,48.94-46.58c20.74-11.04,43.85-16.56,69.32-16.56
					c25.47,0,48.45,5.52,68.96,16.56c20.5,11.04,36.69,26.56,48.58,46.58c11.88,20.01,17.83,43,17.83,68.96
					c0,16.01-3.7,31.54-11.1,46.58c-7.4,15.05-16.68,27.05-27.84,36.03h44.39v45.12H295.35
					C266.72,650.72,241.61,645.57,220.02,635.25z M329.19,593.04c11.88-6.19,21.22-15.28,28.02-27.29
					c6.79-12.01,10.19-26.14,10.19-42.39c0-16.25-3.46-30.5-10.37-42.76c-6.91-12.25-16.38-21.65-28.38-28.2
					c-12.01-6.55-25.42-9.83-40.21-9.83c-15.04,0-28.57,3.27-40.57,9.83c-12.01,6.55-21.53,15.95-28.57,28.2
					c-7.04,12.25-10.55,26.51-10.55,42.76c0,24.74,7.33,44.09,22.02,58.04c14.68,13.95,33.9,20.92,57.68,20.92
					C303.72,602.32,317.3,599.23,329.19,593.04z"/>
				<path class="st0" d="M469.65,636.71c-11.89-12.98-17.83-30.26-17.83-51.85v-108.8h54.95v102.98c0,22.81,10.55,34.21,31.66,34.21
					c9.22,0,17.83-2.18,25.84-6.55c8-4.37,14.67-10.92,20.01-19.65V476.05h54.95v174.67h-53.13v-21.11
					c-7.77,8.98-17.16,15.65-28.2,20.01c-11.04,4.37-22.62,6.55-34.75,6.55C499.36,656.18,481.53,649.69,469.65,636.71z"/>
				<rect x="679.98" y="476.05" class="st0" width="55.31" height="174.67"/>
				<path class="st0" d="M768.4,619.06l88.06-103.35h-88.18v-19.85c0-10.94,8.87-19.81,19.81-19.81h139.33v32.02l-87.34,102.98
					h87.58v19.85c0,10.94-8.87,19.81-19.81,19.81H768.4V619.06z"/>
			</g>
		</g>
		<g>
			<g>
				<path class="st0" d="M225.11,264.51h14.65v80.66h-14.65V264.51z"/>
				<path class="st0" d="M253.61,289.78h14.08v7.5c2.61-3.15,5.73-5.48,9.35-6.98c3.61-1.5,7.42-2.25,11.42-2.25
					c7.46,0,13.04,2.02,16.73,6.06c3.69,4.04,5.54,9.4,5.54,16.1v34.96h-14.54v-33.58c0-8.08-3.77-12.12-11.31-12.12
					c-3.31,0-6.42,0.79-9.35,2.37c-2.92,1.58-5.39,3.94-7.39,7.1v36.23h-14.54V289.78z"/>
				<path class="st0" d="M332.42,341.82c-3.15-3.38-4.73-8.15-4.73-14.31v-26.65h-8.31v-11.08h8.31v-16.62h14.54v16.62h13.27v11.08
					h-13.27v24.81c0,3.54,0.65,6.06,1.96,7.56c1.31,1.5,3.69,2.25,7.15,2.25c2.38,0,4.73-0.54,7.04-1.62v11.08
					c-3.31,1.31-7.35,1.96-12.12,1.96C340.18,346.9,335.57,345.21,332.42,341.82z"/>
				<path class="st0" d="M375.46,339.17c-6-5.15-9-12.35-9-21.58c0-9.08,2.65-16.27,7.96-21.58c5.31-5.31,12.88-7.96,22.73-7.96
					c6.46,0,11.98,1.23,16.56,3.69c4.58,2.46,8.02,5.83,10.33,10.1s3.46,9.14,3.46,14.6v6.69H380.3c1,8.23,8.15,12.35,21.46,12.35
					c3.54,0,7.15-0.31,10.85-0.92c3.69-0.61,6.92-1.46,9.69-2.54v11.19c-2.62,1.08-5.98,1.96-10.1,2.65
					c-4.12,0.69-8.21,1.04-12.29,1.04C389.61,346.9,381.46,344.33,375.46,339.17z M413.76,313.21c-0.16-4.38-1.71-7.77-4.67-10.15
					c-2.96-2.38-7.02-3.58-12.17-3.58c-5.08,0-9.08,1.23-12,3.69c-2.92,2.46-4.46,5.81-4.62,10.04H413.76z"/>
				<path class="st0" d="M439.03,289.78h14.08v8.88c2.23-3,5.4-5.23,9.52-6.69c4.11-1.46,8.83-2.19,14.14-2.19v11.08
					c-5.62,0-10.48,0.87-14.6,2.6c-4.12,1.73-6.98,4.44-8.6,8.13v33.58h-14.54V289.78z"/>
				<path class="st0" d="M483.69,304.78H522v11.65h-38.31V304.78z"/>
				<path class="st0" d="M531.23,264.51h15.58l23.77,61.04l23.89-61.04h15.46l-32.19,80.66h-14.19L531.23,264.51z"/>
				<path class="st0" d="M613.39,341.65c-4.23-3.5-6.35-8.21-6.35-14.14c0-6.15,2-10.96,6-14.42c4-3.46,9.62-5.19,16.85-5.19
					c7,0,13.04,1.42,18.12,4.27v-1.5c0-3.92-1.21-6.77-3.63-8.54c-2.42-1.77-6.33-2.65-11.71-2.65c-3.39,0-6.73,0.33-10.04,0.98
					c-3.31,0.65-6.23,1.56-8.77,2.71v-11.42c2.31-1.08,5.4-1.96,9.29-2.65c3.88-0.69,7.63-1.04,11.25-1.04
					c9.62,0,16.73,2.06,21.35,6.17c4.62,4.12,6.92,9.83,6.92,17.14v33.81h-13.73v-5.42c-2.38,2.31-5.1,4.08-8.13,5.31
					c-3.04,1.23-6.75,1.85-11.13,1.85C623.04,346.9,617.62,345.15,613.39,341.65z M642,334.38c2.61-1.27,4.62-3.02,6-5.25v-6.12
					c-4.23-3-9.08-4.5-14.54-4.5c-7.77,0-11.65,3-11.65,9c0,2.92,0.98,5.12,2.94,6.58c1.96,1.46,4.79,2.19,8.48,2.19
					C636.46,336.29,639.39,335.65,642,334.38z"/>
				<path class="st0" d="M675.93,259.9h14.54v85.27h-14.54V259.9z"/>
				<path class="st0" d="M704.31,259.9h14.54v85.27h-14.54V259.9z"/>
				<path class="st0" d="M739.39,339.17c-6-5.15-9-12.35-9-21.58c0-9.08,2.65-16.27,7.96-21.58c5.31-5.31,12.88-7.96,22.73-7.96
					c6.46,0,11.98,1.23,16.56,3.69c4.58,2.46,8.02,5.83,10.33,10.1s3.46,9.14,3.46,14.6v6.69h-47.19c1,8.23,8.15,12.35,21.46,12.35
					c3.54,0,7.15-0.31,10.85-0.92c3.69-0.61,6.92-1.46,9.69-2.54v11.19c-2.62,1.08-5.98,1.96-10.1,2.65
					c-4.12,0.69-8.21,1.04-12.29,1.04C753.54,346.9,745.39,344.33,739.39,339.17z M777.7,313.21c-0.16-4.38-1.71-7.77-4.67-10.15
					c-2.96-2.38-7.02-3.58-12.17-3.58c-5.08,0-9.08,1.23-12,3.69c-2.92,2.46-4.46,5.81-4.62,10.04H777.7z"/>
				<path class="st0" d="M806.49,367.61c-2.19-0.27-3.91-0.63-5.13-1.1v-11.08c1.92,0.77,4.31,1.15,7.15,1.15
					c2.92,0,5.12-0.65,6.58-1.96c1.46-1.31,2.73-3.39,3.81-6.23l2.19-5.77l-23.89-52.85h14.66l17.08,40.39l16.04-40.39h14.54
					l-24.23,60.35c-2.46,6.08-5.44,10.58-8.94,13.5c-3.5,2.92-8.02,4.38-13.56,4.38C810.77,368.02,808.68,367.88,806.49,367.61z"/>
			</g>
		</g>
	</g>
</g>
</svg>
