<?xml version="1.0" encoding="utf-8"?>
<!-- Generator: Adobe Illustrator 23.1.0, SVG Export Plug-In . SVG Version: 6.00 Build 0)  -->
<svg version="1.1" id="Layer_1" xmlns="http://www.w3.org/2000/svg" xmlns:xlink="http://www.w3.org/1999/xlink" x="0px" y="0px"
	 viewBox="0 0 805.4 577.8" style="enable-background:new 0 0 805.4 577.8;" xml:space="preserve">
<g>
	<g>
		<g>
			<path d="M30.1,542.6c-6.5-3.4-11.5-8.2-15.1-14.5c-3.6-6.3-5.4-13.6-5.4-22c0-8.4,1.8-15.7,5.4-22s8.6-11.1,15.1-14.5
				s13.9-5.1,22.2-5.1c11,0,20.2,2.6,27.6,7.9v13.8c-6.6-5.6-15.4-8.4-26.3-8.4c-5.9,0-11,1.2-15.4,3.5s-7.8,5.6-10.3,9.9
				c-2.4,4.3-3.6,9.3-3.6,15c0,5.8,1.2,10.8,3.7,15.1c2.5,4.3,5.9,7.5,10.3,9.9s9.5,3.5,15.3,3.5c5.6,0,10.6-0.7,15.1-2.1
				s8.5-3.7,12.2-6.8v13.8c-7,5.5-16.5,8.2-28.5,8.2C44,547.7,36.6,546,30.1,542.6z"/>
			<path d="M92.2,461.7h14.4v36.5c5.2-5.8,11.9-8.7,20.1-8.7c7.4,0,12.9,2,16.5,6s5.5,9.3,5.5,15.9V546h-14.4v-33.2
				c0-8-3.7-12-11.2-12c-3.3,0-6.4,0.8-9.2,2.3s-5.3,3.9-7.3,7V546H92.2L92.2,461.7L92.2,461.7z"/>
			<path d="M164.1,542.5c-4.2-3.5-6.3-8.1-6.3-14c0-6.1,2-10.8,5.9-14.2c4-3.4,9.5-5.1,16.6-5.1c6.9,0,12.9,1.4,17.9,4.2v-1.5
				c0-3.9-1.2-6.7-3.6-8.4c-2.4-1.8-6.2-2.6-11.6-2.6c-3.4,0-6.6,0.3-9.9,1c-3.3,0.7-6.2,1.5-8.7,2.7v-11.3c2.3-1.1,5.3-1.9,9.2-2.6
				s7.5-1,11.1-1c9.5,0,16.5,2,21.1,6.1c4.6,4.1,6.8,9.7,6.8,16.9V546h-13.6v-5.4c-2.4,2.3-5,4-8,5.2c-3,1.2-6.7,1.8-11,1.8
				C173.6,547.7,168.3,546,164.1,542.5z M192.4,535.3c2.6-1.2,4.6-3,5.9-5.2v-6c-4.2-3-9-4.5-14.4-4.5c-7.7,0-11.5,3-11.5,8.9
				c0,2.9,1,5.1,2.9,6.5c1.9,1.5,4.7,2.2,8.4,2.2C186.9,537.2,189.8,536.6,192.4,535.3z"/>
			<path d="M225.9,491.3h13.5v7.2c2.4-2.9,5.3-5.1,8.5-6.6c3.3-1.5,6.6-2.3,9.9-2.3c4.3,0,7.7,0.7,10.3,2.1c2.6,1.4,4.5,3.5,5.8,6.3
				c2.4-2.7,5.4-4.8,8.8-6.3s6.9-2.2,10.3-2.2c6.8,0,11.7,1.7,14.7,5.1s4.5,8.4,4.5,15V546h-13.8v-34.3c0-3.9-0.8-6.7-2.3-8.3
				s-4-2.5-7.5-2.5c-2.4,0-4.7,0.5-6.7,1.4c-2,1-3.9,2.6-5.5,4.8c0.1,2.4,0.2,4.4,0.2,5.9v33h-13.9v-34.6c0-4-0.6-6.7-1.9-8.3
				s-3.6-2.3-7.1-2.3c-5.2,0-9.8,2.9-13.9,8.8V546h-13.9L225.9,491.3L225.9,491.3z"/>
			<path d="M325.3,491.3h13.9v6.6c3-2.8,6.2-4.9,9.7-6.3s7.5-2,12-2c5.5,0,10.5,1.2,14.9,3.6c4.4,2.4,7.8,5.8,10.3,10.2
				c2.5,4.4,3.7,9.5,3.7,15.2c0,5.7-1.2,10.8-3.7,15.2c-2.5,4.4-5.9,7.8-10.3,10.3c-4.4,2.5-9.3,3.7-14.9,3.7
				c-4.2,0-8.1-0.6-11.8-1.8s-6.8-3-9.4-5.3V571h-14.4V491.3z M370.1,531.4c3.3-3.3,5-7.6,5-12.9s-1.7-9.5-5-12.8
				c-3.4-3.3-7.6-4.9-12.8-4.9c-4.1,0-7.8,1.1-11,3.3c-3.2,2.2-5.4,5.2-6.7,8.9v11.1c1.2,3.7,3.4,6.7,6.7,9s6.9,3.4,11,3.4
				C362.5,536.4,366.8,534.8,370.1,531.4z"/>
			<path d="M403.5,479.4c-1.6-1.5-2.3-3.4-2.3-5.7s0.8-4.2,2.3-5.8s3.5-2.3,5.8-2.3s4.2,0.8,5.8,2.3c1.6,1.6,2.4,3.5,2.4,5.8
				s-0.8,4.2-2.4,5.7c-1.6,1.5-3.5,2.3-5.8,2.3S405,480.9,403.5,479.4z M401.9,491.3h14.6V546h-14.6V491.3z"/>
			<path d="M444.1,544.2c-4.8-2.3-8.6-5.7-11.2-10c-2.7-4.4-4-9.6-4-15.6c0-5.8,1.3-11,3.9-15.3c2.6-4.4,6.4-7.8,11.2-10.2
				c4.9-2.4,10.5-3.6,16.9-3.6c6.4,0,12,1.2,16.8,3.6s8.6,5.8,11.2,10.2s4,9.5,4,15.3c0,6-1.3,11.2-4,15.6s-6.4,7.7-11.2,10
				c-4.8,2.3-10.4,3.5-16.8,3.5C454.5,547.7,448.9,546.6,444.1,544.2z M473.4,531.5c3.1-3.3,4.7-7.6,4.7-12.8
				c0-5.5-1.5-9.9-4.6-13.1c-3.1-3.2-7.3-4.7-12.6-4.7c-5.3,0-9.5,1.6-12.6,4.7c-3.1,3.2-4.6,7.5-4.6,13.1c0,5.2,1.6,9.5,4.7,12.8
				c3.1,3.3,7.3,5,12.5,5C466.1,536.4,470.3,534.8,473.4,531.5z"/>
			<path d="M504.3,491.3h13.9v7.4c2.6-3.1,5.7-5.4,9.2-6.9c3.6-1.5,7.3-2.2,11.3-2.2c7.4,0,12.9,2,16.5,6s5.5,9.3,5.5,15.9V546
				h-14.4v-33.2c0-8-3.7-12-11.2-12c-3.3,0-6.3,0.8-9.2,2.3s-5.3,3.9-7.3,7V546h-14.4V491.3z"/>
			<path d="M582.5,546.3c-4.5-0.9-8-2.2-10.5-3.8v-12.2c3,1.8,6.5,3.3,10.6,4.4c4.1,1.1,8,1.7,11.6,1.7s6.3-0.3,8-1
				c1.7-0.6,2.5-1.8,2.5-3.6c0-1.4-0.4-2.5-1.3-3.4s-2.3-1.7-4.2-2.4c-1.9-0.7-4.9-1.6-9-2.7c-4.6-1.3-8.2-2.6-10.8-4
				s-4.6-3.1-5.9-5.2s-2-4.8-2-8.2c0-5.5,2.2-9.6,6.5-12.4s10.2-4.2,17.6-4.2c3.8,0,7.6,0.4,11.3,1.1c3.8,0.7,6.7,1.7,8.8,3v11.7
				c-2.3-1.4-5.1-2.5-8.3-3.3c-3.3-0.8-6.6-1.2-10-1.2c-3.7,0-6.5,0.4-8.4,1.1c-1.9,0.7-2.8,2.1-2.8,4.2c0,1.4,0.5,2.5,1.5,3.2
				s2.4,1.5,4,2s4.7,1.4,9.1,2.6c4.7,1.3,8.4,2.7,11.1,4.2c2.7,1.5,4.6,3.3,5.7,5.5c1.1,2.1,1.7,4.8,1.7,8c0,4.9-2.1,8.8-6.2,11.7
				s-10.1,4.4-18,4.4C591.2,547.7,587,547.3,582.5,546.3z"/>
			<path d="M630.8,461.7h14.4v36.5c5.2-5.8,11.9-8.7,20.1-8.7c7.4,0,12.9,2,16.5,6s5.5,9.3,5.5,15.9V546h-14.4v-33.2
				c0-8-3.7-12-11.2-12c-3.3,0-6.3,0.8-9.2,2.3s-5.3,3.9-7.3,7V546h-14.4L630.8,461.7L630.8,461.7z"/>
			<path d="M702.6,479.4c-1.6-1.5-2.3-3.4-2.3-5.7s0.8-4.2,2.3-5.8s3.5-2.3,5.8-2.3s4.2,0.8,5.8,2.3c1.6,1.6,2.4,3.5,2.4,5.8
				s-0.8,4.2-2.4,5.7c-1.6,1.5-3.5,2.3-5.8,2.3S704.2,480.9,702.6,479.4z M701.1,491.3h14.6V546h-14.6V491.3z"/>
			<path d="M730.3,491.3h13.9v6.6c3-2.8,6.2-4.9,9.7-6.3s7.5-2,12-2c5.5,0,10.5,1.2,14.9,3.6s7.8,5.8,10.3,10.2
				c2.5,4.4,3.7,9.5,3.7,15.2c0,5.7-1.2,10.8-3.7,15.2c-2.5,4.4-5.9,7.8-10.3,10.3c-4.4,2.5-9.3,3.7-14.9,3.7
				c-4.2,0-8.1-0.6-11.8-1.8c-3.7-1.2-6.8-3-9.4-5.3V571h-14.4V491.3z M775.1,531.4c3.3-3.3,5-7.6,5-12.9s-1.7-9.5-5-12.8
				c-3.3-3.3-7.6-4.9-12.8-4.9c-4.1,0-7.8,1.1-11,3.3c-3.2,2.2-5.4,5.2-6.7,8.9v11.1c1.2,3.7,3.4,6.7,6.7,9s6.9,3.4,11,3.4
				C767.5,536.4,771.8,534.8,775.1,531.4z"/>
		</g>
		<g>
			<path d="M548.4,191.6c-5.8-5.6-8.7-12.6-8.7-21.1c0-8.2,2.9-15.2,8.7-20.9c5.8-5.7,13-8.5,21.5-8.5c8.5,0,15.7,2.9,21.5,8.5
				c5.8,5.7,8.7,12.7,8.7,20.9c0,8.5-2.9,15.5-8.7,21.1s-13,8.4-21.5,8.4C561.3,200,554.2,197.2,548.4,191.6z"/>
			<g>
				<path d="M82.2,386.1c-21.6-10.3-38.3-25.1-50-44.4c-11.8-19.3-17.6-41.9-17.6-67.9c0-25.9,5.9-48.9,17.8-69
					c11.9-20,28.2-35.5,48.9-46.6c20.7-11,43.9-16.6,69.3-16.6s48.5,5.5,69,16.6c20.5,11,36.7,26.6,48.6,46.6
					c11.9,20,17.8,43,17.8,69c0,16-3.7,31.5-11.1,46.6c-7.4,15-16.7,27-27.8,36h44.4v45.1H157.6C128.9,401.6,103.8,396.4,82.2,386.1
					z M191.4,343.9c11.9-6.2,21.2-15.3,28-27.3c6.8-12,10.2-26.1,10.2-42.4s-3.5-30.5-10.4-42.8c-6.9-12.2-16.4-21.6-28.4-28.2
					c-12-6.5-25.4-9.8-40.2-9.8c-15,0-28.6,3.3-40.6,9.8c-12,6.5-21.5,16-28.6,28.2C74.5,243.7,71,258,71,274.2
					c0,24.7,7.3,44.1,22,58c14.7,14,33.9,20.9,57.7,20.9C165.9,353.2,179.5,350.1,191.4,343.9z"/>
				<path d="M331.9,387.6c-11.9-13-17.8-30.3-17.8-51.8V226.9h55v103c0,22.8,10.5,34.2,31.7,34.2c9.2,0,17.8-2.2,25.8-6.5
					c8-4.4,14.7-10.9,20-19.7v-111h55v174.7h-53.1v-21.1c-7.8,9-17.2,15.7-28.2,20c-11,4.4-22.6,6.5-34.8,6.5
					C361.6,407.1,343.7,400.6,331.9,387.6z"/>
				<rect x="542.2" y="226.9" width="55.3" height="174.7"/>
				<path d="M630.6,369.9l88.1-103.3h-88.2v-19.8c0-10.9,8.9-19.8,19.8-19.8h139.3v32l-87.3,103h87.6v19.8
					c0,10.9-8.9,19.8-19.8,19.8H630.6V369.9z"/>
			</g>
		</g>
		<g>
			<g>
				<path d="M87.3,15.4H102V96H87.3V15.4z"/>
				<path d="M115.8,40.7h14.1v7.5c2.6-3.1,5.7-5.5,9.4-7c3.6-1.5,7.4-2.2,11.4-2.2c7.5,0,13,2,16.7,6.1s5.5,9.4,5.5,16.1v35h-14.5
					V62.5c0-8.1-3.8-12.1-11.3-12.1c-3.3,0-6.4,0.8-9.4,2.4c-2.9,1.6-5.4,3.9-7.4,7.1V96h-14.5L115.8,40.7L115.8,40.7z"/>
				<path d="M194.6,92.7c-3.1-3.4-4.7-8.1-4.7-14.3V51.7h-8.3V40.7h8.3V24h14.5v16.6h13.3v11.1h-13.3v24.8c0,3.5,0.6,6.1,2,7.6
					s3.7,2.2,7.1,2.2c2.4,0,4.7-0.5,7-1.6v11.1c-3.3,1.3-7.4,2-12.1,2C202.4,97.8,197.8,96.1,194.6,92.7z"/>
				<path d="M237.7,90c-6-5.1-9-12.4-9-21.6c0-9.1,2.6-16.3,8-21.6s12.9-8,22.7-8c6.5,0,12,1.2,16.6,3.7s8,5.8,10.3,10.1
					s3.5,9.1,3.5,14.6V74h-47.2c1,8.2,8.1,12.4,21.5,12.4c3.5,0,7.1-0.3,10.9-0.9c3.7-0.6,6.9-1.5,9.7-2.5v11.2
					c-2.6,1.1-6,2-10.1,2.6s-8.2,1-12.3,1C251.8,97.8,243.7,95.2,237.7,90z M276,64.1c-0.2-4.4-1.7-7.8-4.7-10.1
					c-3-2.4-7-3.6-12.2-3.6c-5.1,0-9.1,1.2-12,3.7s-4.5,5.8-4.6,10L276,64.1L276,64.1z"/>
				<path d="M301.2,40.7h14.1v8.9c2.2-3,5.4-5.2,9.5-6.7c4.1-1.5,8.8-2.2,14.1-2.2v11.1c-5.6,0-10.5,0.9-14.6,2.6s-7,4.4-8.6,8.1V96
					h-14.5L301.2,40.7L301.2,40.7z"/>
				<path d="M345.9,55.7h38.3v11.6h-38.3V55.7z"/>
				<path d="M393.4,15.4H409l23.8,61l23.9-61h15.5L439.9,96h-14.2L393.4,15.4z"/>
				<path d="M475.6,92.5c-4.2-3.5-6.3-8.2-6.3-14.1c0-6.1,2-11,6-14.4c4-3.5,9.6-5.2,16.8-5.2c7,0,13,1.4,18.1,4.3v-1.5
					c0-3.9-1.2-6.8-3.6-8.5c-2.4-1.8-6.3-2.6-11.7-2.6c-3.4,0-6.7,0.3-10,1c-3.3,0.6-6.2,1.6-8.8,2.7V42.6c2.3-1.1,5.4-2,9.3-2.6
					c3.9-0.7,7.6-1,11.2-1c9.6,0,16.7,2.1,21.3,6.2c4.6,4.1,6.9,9.8,6.9,17.1v33.8h-13.7v-5.4c-2.4,2.3-5.1,4.1-8.1,5.3
					c-3,1.2-6.8,1.9-11.1,1.9C485.2,97.8,479.8,96,475.6,92.5z M504.2,85.3c2.6-1.3,4.6-3,6-5.2v-6.1c-4.2-3-9.1-4.5-14.5-4.5
					c-7.8,0-11.7,3-11.7,9c0,2.9,1,5.1,2.9,6.6s4.8,2.2,8.5,2.2C498.7,87.2,501.6,86.5,504.2,85.3z"/>
				<path d="M538.1,10.8h14.5V96h-14.5V10.8z"/>
				<path d="M566.5,10.8h14.5V96h-14.5V10.8z"/>
				<path d="M601.6,90c-6-5.1-9-12.4-9-21.6c0-9.1,2.7-16.3,8-21.6s12.9-8,22.7-8c6.5,0,12,1.2,16.6,3.7s8,5.8,10.3,10.1
					s3.5,9.1,3.5,14.6V74h-47.2c1,8.2,8.2,12.4,21.5,12.4c3.5,0,7.2-0.3,10.8-0.9c3.7-0.6,6.9-1.5,9.7-2.5v11.2
					c-2.6,1.1-6,2-10.1,2.6s-8.2,1-12.3,1C615.7,97.8,607.6,95.2,601.6,90z M639.9,64.1c-0.2-4.4-1.7-7.8-4.7-10.1
					c-3-2.4-7-3.6-12.2-3.6c-5.1,0-9.1,1.2-12,3.7s-4.5,5.8-4.6,10L639.9,64.1L639.9,64.1z"/>
				<path d="M668.7,118.5c-2.2-0.3-3.9-0.6-5.1-1.1v-11.1c1.9,0.8,4.3,1.1,7.2,1.1c2.9,0,5.1-0.6,6.6-2s2.7-3.4,3.8-6.2l2.2-5.8
					l-23.9-52.9h14.7L691.1,81l16-40.4h14.5L697.5,101c-2.5,6.1-5.4,10.6-8.9,13.5s-8,4.4-13.6,4.4
					C673,118.9,670.9,118.8,668.7,118.5z"/>
			</g>
		</g>
	</g>
</g>
</svg>
